<mxfile host="app.diagrams.net" modified="2023-03-26T12:42:48.365Z" agent="Mozilla/5.0 (Windows NT 10.0; Win64; x64) AppleWebKit/537.36 (KHTML, like Gecko) Chrome/83.0.4103.14 Safari/537.36 OPR/69.0.3665.0 (Edition developer)" etag="lrFgy2zY7sStFuJdkF9-" version="21.1.1" type="device">
  <diagram name="Página-1" id="kAq4VgKYWmEqWGa1TKVO">
    <mxGraphModel dx="794" dy="1661" grid="1" gridSize="10" guides="1" tooltips="1" connect="1" arrows="1" fold="1" page="1" pageScale="1" pageWidth="827" pageHeight="1169" math="0" shadow="0">
      <root>
        <mxCell id="0" />
        <mxCell id="1" parent="0" />
        <mxCell id="Mr-S8CGjB1Sd80mxp6YW-1" value="" style="rounded=0;whiteSpace=wrap;html=1;" parent="1" vertex="1">
          <mxGeometry x="80" y="60" width="240" height="360" as="geometry" />
        </mxCell>
        <mxCell id="Mr-S8CGjB1Sd80mxp6YW-3" value="&lt;font style=&quot;font-size: 20px;&quot;&gt;Bienvenido a RestChifa&lt;/font&gt;" style="rounded=0;whiteSpace=wrap;html=1;" parent="1" vertex="1">
          <mxGeometry x="90" y="70" width="220" height="40" as="geometry" />
        </mxCell>
        <mxCell id="Mr-S8CGjB1Sd80mxp6YW-16" value="" style="rounded=0;whiteSpace=wrap;html=1;" parent="1" vertex="1">
          <mxGeometry x="440" y="60" width="240" height="360" as="geometry" />
        </mxCell>
        <mxCell id="Mr-S8CGjB1Sd80mxp6YW-17" value="&lt;font style=&quot;font-size: 20px;&quot;&gt;Reserva&lt;/font&gt;" style="rounded=0;whiteSpace=wrap;html=1;" parent="1" vertex="1">
          <mxGeometry x="450" y="70" width="220" height="40" as="geometry" />
        </mxCell>
        <mxCell id="Mr-S8CGjB1Sd80mxp6YW-18" value="Nombre" style="rounded=0;whiteSpace=wrap;html=1;" parent="1" vertex="1">
          <mxGeometry x="490" y="175" width="65" height="20" as="geometry" />
        </mxCell>
        <mxCell id="Mr-S8CGjB1Sd80mxp6YW-19" value="" style="rounded=0;whiteSpace=wrap;html=1;" parent="1" vertex="1">
          <mxGeometry x="490" y="195" width="65" height="20" as="geometry" />
        </mxCell>
        <mxCell id="Mr-S8CGjB1Sd80mxp6YW-31" value="&lt;font style=&quot;font-size: 20px;&quot;&gt;Reservar&lt;/font&gt;" style="rounded=0;whiteSpace=wrap;html=1;" parent="1" vertex="1">
          <mxGeometry x="515" y="395" width="90" height="20" as="geometry" />
        </mxCell>
        <mxCell id="Mr-S8CGjB1Sd80mxp6YW-33" value="Nombre y fotos de platos recomendados" style="rounded=0;whiteSpace=wrap;html=1;" parent="1" vertex="1">
          <mxGeometry x="105" y="240" width="195" height="160" as="geometry" />
        </mxCell>
        <mxCell id="Mr-S8CGjB1Sd80mxp6YW-34" value="Platos recomendados" style="rounded=0;whiteSpace=wrap;html=1;" parent="1" vertex="1">
          <mxGeometry x="142.5" y="180" width="120" height="40" as="geometry" />
        </mxCell>
        <mxCell id="Mr-S8CGjB1Sd80mxp6YW-51" value="" style="rounded=0;whiteSpace=wrap;html=1;" parent="1" vertex="1">
          <mxGeometry x="80" y="510" width="240" height="360" as="geometry" />
        </mxCell>
        <mxCell id="Mr-S8CGjB1Sd80mxp6YW-53" value="&lt;font style=&quot;font-size: 20px;&quot;&gt;Nuestros Platos&lt;/font&gt;" style="rounded=0;whiteSpace=wrap;html=1;" parent="1" vertex="1">
          <mxGeometry x="90" y="520" width="220" height="40" as="geometry" />
        </mxCell>
        <mxCell id="Mr-S8CGjB1Sd80mxp6YW-55" value="Primeros" style="rounded=0;whiteSpace=wrap;html=1;" parent="1" vertex="1">
          <mxGeometry x="105" y="665" width="55" height="25" as="geometry" />
        </mxCell>
        <mxCell id="Mr-S8CGjB1Sd80mxp6YW-56" value="Menú de lunes a viernes" style="rounded=0;whiteSpace=wrap;html=1;" parent="1" vertex="1">
          <mxGeometry x="140" y="620" width="120" height="30" as="geometry" />
        </mxCell>
        <mxCell id="Mr-S8CGjB1Sd80mxp6YW-57" value="Segundos" style="rounded=0;whiteSpace=wrap;html=1;" parent="1" vertex="1">
          <mxGeometry x="230" y="665" width="55" height="25" as="geometry" />
        </mxCell>
        <mxCell id="Mr-S8CGjB1Sd80mxp6YW-58" value="(Nombres y descripción)" style="rounded=0;whiteSpace=wrap;html=1;" parent="1" vertex="1">
          <mxGeometry x="95" y="700" width="75" height="40" as="geometry" />
        </mxCell>
        <mxCell id="Mr-S8CGjB1Sd80mxp6YW-59" value="(Nombres y descripción)" style="rounded=0;whiteSpace=wrap;html=1;" parent="1" vertex="1">
          <mxGeometry x="220" y="700" width="75" height="40" as="geometry" />
        </mxCell>
        <mxCell id="Mr-S8CGjB1Sd80mxp6YW-63" value="&lt;font size=&quot;1&quot;&gt;(Mensaje errores o reserva realizada&lt;br&gt;después de click en reservar)&lt;/font&gt;" style="rounded=0;whiteSpace=wrap;html=1;" parent="1" vertex="1">
          <mxGeometry x="450" y="360" width="220" height="30" as="geometry" />
        </mxCell>
        <mxCell id="Mr-S8CGjB1Sd80mxp6YW-67" style="edgeStyle=orthogonalEdgeStyle;rounded=0;orthogonalLoop=1;jettySize=auto;html=1;exitX=0.5;exitY=1;exitDx=0;exitDy=0;" parent="1" source="Mr-S8CGjB1Sd80mxp6YW-19" target="Mr-S8CGjB1Sd80mxp6YW-19" edge="1">
          <mxGeometry relative="1" as="geometry" />
        </mxCell>
        <mxCell id="2QuUyPjBXORziSpioa8q-1" value="" style="rounded=0;whiteSpace=wrap;html=1;" parent="1" vertex="1">
          <mxGeometry x="230" y="-40" width="300" height="60" as="geometry" />
        </mxCell>
        <mxCell id="2QuUyPjBXORziSpioa8q-2" value="Menú Principal" style="rounded=0;whiteSpace=wrap;html=1;" parent="1" vertex="1">
          <mxGeometry x="250" y="-25" width="50" height="30" as="geometry" />
        </mxCell>
        <mxCell id="2QuUyPjBXORziSpioa8q-3" value="Platos" style="rounded=0;whiteSpace=wrap;html=1;" parent="1" vertex="1">
          <mxGeometry x="320" y="-25" width="50" height="30" as="geometry" />
        </mxCell>
        <mxCell id="2QuUyPjBXORziSpioa8q-5" value="Reservar" style="rounded=0;whiteSpace=wrap;html=1;" parent="1" vertex="1">
          <mxGeometry x="390" y="-25" width="50" height="30" as="geometry" />
        </mxCell>
        <mxCell id="2QuUyPjBXORziSpioa8q-6" value="Contacto" style="rounded=0;whiteSpace=wrap;html=1;" parent="1" vertex="1">
          <mxGeometry x="460" y="-25" width="50" height="30" as="geometry" />
        </mxCell>
        <mxCell id="2QuUyPjBXORziSpioa8q-8" value="´Navegación" style="shape=hexagon;perimeter=hexagonPerimeter2;whiteSpace=wrap;html=1;fixedSize=1;" parent="1" vertex="1">
          <mxGeometry x="317.5" y="-60" width="120" height="20" as="geometry" />
        </mxCell>
        <mxCell id="2QuUyPjBXORziSpioa8q-9" value="" style="shape=flexArrow;endArrow=classic;html=1;rounded=0;exitX=0.25;exitY=1;exitDx=0;exitDy=0;entryX=0.575;entryY=-0.011;entryDx=0;entryDy=0;entryPerimeter=0;" parent="1" source="2QuUyPjBXORziSpioa8q-2" target="Mr-S8CGjB1Sd80mxp6YW-1" edge="1">
          <mxGeometry width="50" height="50" relative="1" as="geometry">
            <mxPoint x="380" y="150" as="sourcePoint" />
            <mxPoint x="430" y="100" as="targetPoint" />
          </mxGeometry>
        </mxCell>
        <mxCell id="2QuUyPjBXORziSpioa8q-12" value="" style="shape=flexArrow;endArrow=classic;html=1;rounded=0;exitX=0.75;exitY=1;exitDx=0;exitDy=0;entryX=0.971;entryY=-0.019;entryDx=0;entryDy=0;entryPerimeter=0;" parent="1" source="2QuUyPjBXORziSpioa8q-3" target="Mr-S8CGjB1Sd80mxp6YW-51" edge="1">
          <mxGeometry width="50" height="50" relative="1" as="geometry">
            <mxPoint x="213" y="15" as="sourcePoint" />
            <mxPoint x="91" y="369" as="targetPoint" />
          </mxGeometry>
        </mxCell>
        <mxCell id="2QuUyPjBXORziSpioa8q-11" value="Navegación" style="rounded=0;whiteSpace=wrap;html=1;" parent="1" vertex="1">
          <mxGeometry x="140" y="120" width="120" height="30" as="geometry" />
        </mxCell>
        <mxCell id="2QuUyPjBXORziSpioa8q-13" value="Navegación" style="rounded=0;whiteSpace=wrap;html=1;" parent="1" vertex="1">
          <mxGeometry x="500" y="120" width="120" height="30" as="geometry" />
        </mxCell>
        <mxCell id="2QuUyPjBXORziSpioa8q-14" value="Navegación" style="rounded=0;whiteSpace=wrap;html=1;" parent="1" vertex="1">
          <mxGeometry x="140" y="570" width="120" height="30" as="geometry" />
        </mxCell>
        <mxCell id="2QuUyPjBXORziSpioa8q-15" value="" style="shape=flexArrow;endArrow=classic;html=1;rounded=0;exitX=0.5;exitY=1;exitDx=0;exitDy=0;entryX=0.329;entryY=0.004;entryDx=0;entryDy=0;entryPerimeter=0;" parent="1" source="2QuUyPjBXORziSpioa8q-5" target="Mr-S8CGjB1Sd80mxp6YW-16" edge="1">
          <mxGeometry width="50" height="50" relative="1" as="geometry">
            <mxPoint x="370" y="210" as="sourcePoint" />
            <mxPoint x="420" y="160" as="targetPoint" />
          </mxGeometry>
        </mxCell>
        <mxCell id="2QuUyPjBXORziSpioa8q-16" value="" style="rounded=0;whiteSpace=wrap;html=1;" parent="1" vertex="1">
          <mxGeometry x="360" y="510" width="240" height="360" as="geometry" />
        </mxCell>
        <mxCell id="2QuUyPjBXORziSpioa8q-17" value="&lt;font style=&quot;font-size: 20px;&quot;&gt;Contacto&lt;/font&gt;" style="rounded=0;whiteSpace=wrap;html=1;" parent="1" vertex="1">
          <mxGeometry x="370" y="520" width="220" height="40" as="geometry" />
        </mxCell>
        <mxCell id="2QuUyPjBXORziSpioa8q-19" value="Correo: &lt;br&gt;correo_de_antonio@restchifa.com" style="rounded=0;whiteSpace=wrap;html=1;" parent="1" vertex="1">
          <mxGeometry x="370" y="657.5" width="220" height="30" as="geometry" />
        </mxCell>
        <mxCell id="2QuUyPjBXORziSpioa8q-23" value="Navegación" style="rounded=0;whiteSpace=wrap;html=1;" parent="1" vertex="1">
          <mxGeometry x="420" y="570" width="120" height="30" as="geometry" />
        </mxCell>
        <mxCell id="2QuUyPjBXORziSpioa8q-24" value="Teléfono: &lt;br&gt;Número de Antonio" style="rounded=0;whiteSpace=wrap;html=1;" parent="1" vertex="1">
          <mxGeometry x="370" y="695" width="220" height="30" as="geometry" />
        </mxCell>
        <mxCell id="2QuUyPjBXORziSpioa8q-26" value="" style="shape=flexArrow;endArrow=classic;html=1;rounded=0;exitX=0.25;exitY=1;exitDx=0;exitDy=0;entryX=0.113;entryY=-0.007;entryDx=0;entryDy=0;entryPerimeter=0;" parent="1" source="2QuUyPjBXORziSpioa8q-6" target="2QuUyPjBXORziSpioa8q-16" edge="1">
          <mxGeometry width="50" height="50" relative="1" as="geometry">
            <mxPoint x="370" y="210" as="sourcePoint" />
            <mxPoint x="420" y="160" as="targetPoint" />
          </mxGeometry>
        </mxCell>
        <mxCell id="xo9liCntMVqJfDQ6pyrI-1" value="Teléfono" style="rounded=0;whiteSpace=wrap;html=1;" vertex="1" parent="1">
          <mxGeometry x="570" y="175" width="65" height="20" as="geometry" />
        </mxCell>
        <mxCell id="xo9liCntMVqJfDQ6pyrI-2" value="" style="rounded=0;whiteSpace=wrap;html=1;" vertex="1" parent="1">
          <mxGeometry x="570" y="195" width="65" height="20" as="geometry" />
        </mxCell>
        <mxCell id="xo9liCntMVqJfDQ6pyrI-5" value="Fecha" style="rounded=0;whiteSpace=wrap;html=1;" vertex="1" parent="1">
          <mxGeometry x="490" y="220" width="65" height="20" as="geometry" />
        </mxCell>
        <mxCell id="xo9liCntMVqJfDQ6pyrI-6" value="" style="rounded=0;whiteSpace=wrap;html=1;" vertex="1" parent="1">
          <mxGeometry x="490" y="240" width="65" height="20" as="geometry" />
        </mxCell>
        <mxCell id="xo9liCntMVqJfDQ6pyrI-7" value="Restaurante" style="rounded=0;whiteSpace=wrap;html=1;" vertex="1" parent="1">
          <mxGeometry x="490" y="265" width="65" height="20" as="geometry" />
        </mxCell>
        <mxCell id="xo9liCntMVqJfDQ6pyrI-8" value="" style="rounded=0;whiteSpace=wrap;html=1;" vertex="1" parent="1">
          <mxGeometry x="490" y="285" width="65" height="20" as="geometry" />
        </mxCell>
        <mxCell id="xo9liCntMVqJfDQ6pyrI-9" value="Personas" style="rounded=0;whiteSpace=wrap;html=1;" vertex="1" parent="1">
          <mxGeometry x="570" y="265" width="65" height="20" as="geometry" />
        </mxCell>
        <mxCell id="xo9liCntMVqJfDQ6pyrI-10" value="" style="rounded=0;whiteSpace=wrap;html=1;" vertex="1" parent="1">
          <mxGeometry x="570" y="285" width="65" height="20" as="geometry" />
        </mxCell>
        <mxCell id="xo9liCntMVqJfDQ6pyrI-11" value="Email" style="rounded=0;whiteSpace=wrap;html=1;" vertex="1" parent="1">
          <mxGeometry x="490" y="310" width="65" height="20" as="geometry" />
        </mxCell>
        <mxCell id="xo9liCntMVqJfDQ6pyrI-12" value="(Opcional)" style="rounded=0;whiteSpace=wrap;html=1;" vertex="1" parent="1">
          <mxGeometry x="490" y="330" width="65" height="20" as="geometry" />
        </mxCell>
        <mxCell id="xo9liCntMVqJfDQ6pyrI-13" value="Otros" style="rounded=0;whiteSpace=wrap;html=1;" vertex="1" parent="1">
          <mxGeometry x="570" y="310" width="65" height="20" as="geometry" />
        </mxCell>
        <mxCell id="xo9liCntMVqJfDQ6pyrI-14" value="(Bebés)" style="rounded=0;whiteSpace=wrap;html=1;" vertex="1" parent="1">
          <mxGeometry x="570" y="330" width="65" height="20" as="geometry" />
        </mxCell>
        <mxCell id="xo9liCntMVqJfDQ6pyrI-15" value="Hora" style="rounded=0;whiteSpace=wrap;html=1;" vertex="1" parent="1">
          <mxGeometry x="570" y="220" width="65" height="20" as="geometry" />
        </mxCell>
        <mxCell id="xo9liCntMVqJfDQ6pyrI-16" value="" style="rounded=0;whiteSpace=wrap;html=1;" vertex="1" parent="1">
          <mxGeometry x="570" y="240" width="65" height="20" as="geometry" />
        </mxCell>
        <mxCell id="xo9liCntMVqJfDQ6pyrI-17" value="Nombre: &lt;br&gt;Antonio" style="rounded=0;whiteSpace=wrap;html=1;" vertex="1" parent="1">
          <mxGeometry x="370" y="622.5" width="220" height="30" as="geometry" />
        </mxCell>
        <mxCell id="xo9liCntMVqJfDQ6pyrI-18" value="Correo: &lt;br&gt;correo_de_otro@restchifa.com" style="rounded=0;whiteSpace=wrap;html=1;" vertex="1" parent="1">
          <mxGeometry x="370" y="785" width="220" height="30" as="geometry" />
        </mxCell>
        <mxCell id="xo9liCntMVqJfDQ6pyrI-19" value="Teléfono: &lt;br&gt;Número de Otro" style="rounded=0;whiteSpace=wrap;html=1;" vertex="1" parent="1">
          <mxGeometry x="370" y="822.5" width="220" height="30" as="geometry" />
        </mxCell>
        <mxCell id="xo9liCntMVqJfDQ6pyrI-20" value="Nombre: &lt;br&gt;Otro" style="rounded=0;whiteSpace=wrap;html=1;" vertex="1" parent="1">
          <mxGeometry x="370" y="750" width="220" height="30" as="geometry" />
        </mxCell>
        <mxCell id="xo9liCntMVqJfDQ6pyrI-21" value="A la carta" style="rounded=0;whiteSpace=wrap;html=1;" vertex="1" parent="1">
          <mxGeometry x="140" y="760" width="120" height="30" as="geometry" />
        </mxCell>
        <mxCell id="xo9liCntMVqJfDQ6pyrI-22" value="(Nombres y descripción)" style="rounded=0;whiteSpace=wrap;html=1;" vertex="1" parent="1">
          <mxGeometry x="165" y="800" width="75" height="40" as="geometry" />
        </mxCell>
      </root>
    </mxGraphModel>
  </diagram>
</mxfile>
